<?xml version="1.0"?>
<svg id="banqueting_bianco" xmlns="http://www.w3.org/2000/svg" version="1.1" viewBox="0 0 2312.48 1002.76">
  
  <defs>
    
  </defs>
  <path class="st0" d="M743.2,751.15v-2.03h21.03c4.06,0,7.29.53,9.68,1.6,2.39,1.06,4.1,2.47,5.14,4.21,1.04,1.74,1.56,3.68,1.56,5.81v1.96c0,2.52-.83,4.68-2.48,6.5-1.65,1.81-4.05,3.11-7.2,3.88,3.86.63,6.82,1.94,8.88,3.92,2.06,1.98,3.09,4.48,3.09,7.48v2.03c0,2.18-.53,4.17-1.6,5.99s-2.83,3.27-5.3,4.35c-2.46,1.09-5.75,1.63-9.87,1.63h-22.94v-2.03l4.19-.51c.81-.1,1.3-.3,1.45-.62.15-.31.23-1.29.23-2.94v-37.16c0-1.64-.08-2.62-.23-2.94-.15-.31-.64-.52-1.45-.62l-4.19-.51ZM764.23,751.66h-6.02v20.32h6.02c2.18,0,3.83-.71,4.95-2.14,1.12-1.43,1.68-3.69,1.68-6.79v-2.32c0-3.14-.56-5.44-1.68-6.89-1.12-1.45-2.77-2.18-4.95-2.18ZM766.14,774.52h-7.93v21.41h7.93c2.29,0,4.03-.74,5.22-2.21,1.19-1.48,1.79-3.88,1.79-7.22v-2.4c0-6.39-2.34-9.58-7.01-9.58Z"></path>
  <path class="st0" d="M839.22,796.44v2.03h-14.71v-2.03l4.19-.51c.56-.1.96-.21,1.22-.33.25-.12.48-.42.69-.91.2-.48.48-1.26.84-2.32l14.55-43.25h6.55l14.63,43.25c.35,1.06.63,1.84.84,2.32.2.48.44.79.72.91.28.12.67.23,1.18.33l4.19.51v2.03h-21.03v-2.03l4.19-.51c.81-.1,1.26-.3,1.33-.62.08-.31-.17-1.29-.72-2.94l-2.9-9h-17.6l-2.97,9c-.51,1.65-.74,2.62-.69,2.94.05.31.48.52,1.3.62l4.19.51ZM838.3,780.83h15.85l-7.85-24.09-8,24.09Z"></path>
  <path class="st0" d="M947.2,751.15v-2.03h14.78v2.03l-4.19.51c-.81.1-1.3.3-1.45.62-.15.32-.23,1.29-.23,2.94v43.25h-4.19l-27.97-43.04v36.94c0,1.65.08,2.62.23,2.94.15.31.63.52,1.45.62l4.19.51v2.03h-14.78v-2.03l4.19-.51c.81-.1,1.3-.3,1.45-.62.15-.31.23-1.29.23-2.94v-37.16c0-1.64-.08-2.62-.23-2.94-.15-.31-.64-.52-1.45-.62l-4.19-.51v-2.03h15.32l22.71,34.76v-28.67c0-1.64-.08-2.62-.23-2.94-.15-.31-.64-.52-1.45-.62l-4.19-.51Z"></path>
  <path class="st0" d="M1046.03,804.49l1.3,9.07c-2.74,0-5.26-.45-7.54-1.34-2.29-.9-4.36-2.38-6.21-4.46-1.85-2.08-3.47-4.94-4.84-8.56h-.69c-6.86,0-12.04-2-15.55-5.99-3.5-3.99-5.26-9.71-5.26-17.16v-4.57c0-7.45,1.75-13.16,5.26-17.13,3.51-3.97,8.69-5.95,15.55-5.95s11.98,1.98,15.51,5.95c3.53,3.97,5.3,9.68,5.3,17.13v4.57c0,6.73-1.45,12.06-4.34,16-2.9,3.94-7.16,6.25-12.8,6.93,1.02,1.93,2.62,3.34,4.8,4.21,2.18.87,5.36,1.31,9.53,1.31ZM1039.09,767.84c0-4.26-.39-7.61-1.18-10.05-.79-2.44-1.99-4.2-3.62-5.26-1.63-1.06-3.71-1.6-6.25-1.6s-4.62.53-6.25,1.6c-1.63,1.06-2.83,2.82-3.62,5.26-.79,2.44-1.18,5.79-1.18,10.05v11.83c0,4.21.39,7.55,1.18,10.02.79,2.47,1.99,4.25,3.62,5.33,1.63,1.09,3.71,1.63,6.25,1.63s4.62-.54,6.25-1.63c1.63-1.09,2.83-2.87,3.62-5.33.79-2.47,1.18-5.81,1.18-10.02v-11.83Z"></path>
  <path class="st0" d="M1127.11,751.15v-2.03h14.78v2.03l-4.19.51c-.81.1-1.3.3-1.45.62-.15.32-.23,1.29-.23,2.94v26.49c0,5.81-1.28,10.17-3.85,13.1-2.57,2.93-6.49,4.39-11.77,4.39-6.15,0-11.1-1.6-14.86-4.79-3.76-3.19-5.64-7.79-5.64-13.79v-25.4c0-1.64-.08-2.62-.23-2.94-.15-.31-.64-.52-1.45-.62l-4.19-.51v-2.03h20.88v2.03l-4.19.51c-.81.1-1.3.3-1.45.62-.15.32-.23,1.29-.23,2.94v25.91c0,5.42,1.04,9.34,3.12,11.76,2.08,2.42,5.05,3.63,8.92,3.63s6.68-1.15,8.76-3.45c2.08-2.3,3.12-6.04,3.12-11.21v-26.63c0-1.64-.08-2.62-.23-2.94-.15-.31-.64-.52-1.45-.62l-4.19-.51Z"></path>
  <path class="st0" d="M1221.06,785.99h2.13v12.48h-37.72v-2.03l4.19-.51c.81-.1,1.3-.3,1.45-.62.15-.31.23-1.29.23-2.94v-37.16c0-1.64-.08-2.62-.23-2.94-.15-.31-.64-.52-1.45-.62l-4.19-.51v-2.03h36.96v12.48h-2.13l-2.44-8.06c-.15-.58-.32-1-.5-1.27-.18-.27-.52-.44-1.03-.51-.51-.07-1.37-.11-2.59-.11h-13.26v20.61h8.69c1.22,0,2.08-.04,2.59-.11.51-.07.85-.24,1.03-.51.18-.27.34-.69.5-1.27l1.68-5.88h2.13v18.07h-2.13l-1.68-5.88c-.15-.58-.32-1-.5-1.27-.18-.27-.52-.44-1.03-.51-.51-.07-1.37-.11-2.59-.11h-8.69v21.12h14.02c1.22,0,2.08-.04,2.59-.11.51-.07.85-.24,1.03-.51.18-.27.34-.69.5-1.27l2.44-8.06Z"></path>
  <path class="st0" d="M1267.17,749.12h41.91v12.48h-2.13l-2.44-8.06c-.15-.63-.32-1.08-.5-1.34-.18-.27-.52-.42-1.03-.47-.51-.05-1.37-.07-2.59-.07h-7.7v40.71c0,1.65.08,2.62.23,2.94.15.31.63.52,1.45.62l4.19.51v2.03h-20.88v-2.03l4.19-.51c.81-.1,1.3-.3,1.45-.62.15-.31.23-1.29.23-2.94v-40.71h-7.7c-1.17,0-2.02.02-2.55.07-.53.05-.88.21-1.03.47-.15.27-.33.71-.53,1.34l-2.44,8.06h-2.13v-12.48Z"></path>
  <path class="st0" d="M1351.37,751.15v-2.03h20.88v2.03l-4.19.51c-.81.1-1.29.3-1.45.62-.15.32-.23,1.29-.23,2.94v37.16c0,1.65.08,2.62.23,2.94.15.31.63.52,1.45.62l4.19.51v2.03h-20.88v-2.03l4.19-.51c.81-.1,1.3-.3,1.45-.62.15-.31.23-1.29.23-2.94v-37.16c0-1.64-.08-2.62-.23-2.94-.15-.31-.64-.52-1.45-.62l-4.19-.51Z"></path>
  <path class="st0" d="M1449.06,751.15v-2.03h14.78v2.03l-4.19.51c-.81.1-1.3.3-1.45.62-.15.32-.23,1.29-.23,2.94v43.25h-4.19l-27.97-43.04v36.94c0,1.65.08,2.62.23,2.94.15.31.63.52,1.45.62l4.19.51v2.03h-14.78v-2.03l4.19-.51c.81-.1,1.3-.3,1.45-.62.15-.31.23-1.29.23-2.94v-37.16c0-1.64-.08-2.62-.23-2.94-.15-.31-.64-.52-1.45-.62l-4.19-.51v-2.03h15.32l22.71,34.76v-28.67c0-1.64-.08-2.62-.23-2.94-.15-.31-.64-.52-1.45-.62l-4.19-.51Z"></path>
  <path class="st0" d="M1531.59,778.15v-2.03h21.64v2.03l-4.19.51c-.81.1-1.29.3-1.45.62-.15.32-.23,1.29-.23,2.94v16.26h-2.06c-1.37-1.35-2.9-2.49-4.57-3.41-1.37,1.16-3,2.14-4.88,2.94-1.88.8-4.17,1.2-6.86,1.2-4.17,0-7.73-1-10.71-3.01-2.97-2.01-5.25-4.79-6.82-8.35-1.58-3.56-2.36-7.61-2.36-12.16v-4.57c0-4.4.79-8.31,2.36-11.72,1.57-3.41,3.89-6.1,6.93-8.06s6.78-2.94,11.2-2.94c4.17,0,7.61.71,10.33,2.14,2.72,1.43,4.71,3.31,5.98,5.66,1.27,2.35,1.75,4.9,1.45,7.66l-8.92,2.1c.56-4.84,0-8.55-1.68-11.14-1.68-2.59-4.17-3.88-7.47-3.88-6.96,0-10.44,5.88-10.44,17.64v10.38c0,11.81,3.68,17.71,11.05,17.71,1.62,0,3.26-.31,4.92-.94,1.65-.63,3.03-1.55,4.15-2.76v-10.74c0-1.64-.08-2.64-.23-2.98-.15-.34-.64-.53-1.45-.58l-5.72-.51Z"></path>
  <path class="st1" d="M2116.35,654.16c-10.81,2.27-33.37,8.48-43.77,1.09-1.75-1.25-2.86-4.24-4.17-5.11-1.12-.74-.28-2.76-2.38-3.91-8.24-4.48-28.5-.32-38.46-.44-14.64-.17-29.28-.34-43.92-.51-18.13-.21-36.25-.42-54.38-.63-10.73-.12-21.45-.25-32.18-.37-5.85-.07-27.76-3.58-31.99-.36-.08.06-41.83,31.84-41.83,31.84.62,0,1.24,0,1.85,0,9.27.14,17.23.27,17.23.27,24.44,6.57,28.85-1.91,28.85-1.91l42.99-.21c55.85,3.45,64.25-2.74,64.25-2.74,13.15-10.43,22.11,0,22.11,0l81.84,1.7,14.98-6.95c7.92-4.24,31.22,6.12,31.22,6.12,12.28,3.07,44.58-3.36,44.58-3.36,5.89-2.11,20.64-2.48,20.64-2.48-29.52-13.66-77.46-12.04-77.46-12.04Z"></path>
  <path class="st0" d="M1955.62,404.27c-4.86.83-10.54,1.88-13.84,2.75-.33.09-.65.2-.96.35-3.7,1.76-29.54,14.28-36.87,23.81-.2.27-.37.55-.51.85-1.52,3.25-11.25,23.28-19.88,24.27,0,0-16.91,2.98-16.94,2.98-17.24,3.04-35.8,20.11-49.46,30.47-19.86,15.05-39.21,30.7-58.45,46.46-36.46,29.84-72.4,60.26-108.08,90.93-10.14,8.71-23.32,13.54-36.99,13.54h-67.42c-10.53,0,.79-12.49,8.86-18.93,6.64-5.48,13.86-11.03,21.43-16.67.09-.07.18-.14.26-.21,59.88-51,184.38-170.12,91.08-208.55-.24-.1-.49-.18-.74-.25-66.89-17.46-135.78,38.04-180.08,83.51-5.95,6.1-12.11,13.61-10.66,21.81,1,5.66,5.51,10.21,10.52,13.42,12.15,7.81,28.43,9.45,42.04,4.25,17.47-6.67,28.55-22.66,41.21-35.91,13.64-14.27,36.93-33.91,59.04-26.15,14.64,5.14-95.46,117.08-101.24,122.19-10.81,9.55-88.58,82.58-105.26,57.86-3.55-5.26-3.5-12.98-1.4-21.17,4.28-16.62,13.74-31.11,14.35-47.67.69-18.71-9.49-30.39-30.61-30.39-73.52,0-104.52,70.91-163.95,97.5-1.38.62-2.82.85-3.99.54-2.55-.68-1.9-3.23-1.08-5.43,8.43-22.67,28.7-44.43,25.92-66.64-2.22-17.72-18.04-25.17-40.11-17.82-16.22,5.4-33.87,25.71-45.51,37.64-2.55,2.6-6.38,1.64-5.4-1.36,5.62-17.22,9.67-36.2-10.8-39.34-26.12-4.01-56.41,17.39-74.39,39.54-1.41,1.73-3.96,1.44-3.61-.42,5.12-26.86-.18-52.56-39.51-36.32-31.88,13.17-59.35,45.81-84.65,67.25-14.48,12.27-22.97,14.36-15.4-2.83,12.74-28.91,26.39-69.87-13.62-69.87-28.01,0-59.97,10.31-87.31,28.28-13.26,8.72-24.88,19.48-36.44,30.07-2.33,2.13-4.69,4.38-7.09,6.66-4.17,3.97-10.99-.6-8.46-5.66,3.86-7.71,8.29-18.25,13.68-33.67,9.22-26.41,12.32-52.81,11.89-77.05-2.08-117.35-104.14-157.9-225.25-149.31-70.34,4.99-147.11,26.55-214.45,59.27-73.84,35.88-180.47,122.77-176.72,196.07,1.41,27.77,29.02,45.89,51.03,59.03,28.49,17,59.6,24.42,95.84,26.47,10.89.62,12.76,12.4,3.44,21.3-22.53,21.5-43.49,35.23-71.77,59.92-11.47,10.02-22.4,21.62-26.93,34.06-4.52,12.4-1.7,24.54,7.19,30.87,16.79,11.99,43.7-.25,64.65-14.89,19-13.27,28.89-22.79,52.65-30.48,28.4-9.19,56.73-13.48,84.67-18.27,56.1-9.61,111.64-10.5,168.85-28.19,58.58-18.12,106.29-51.92,157.26-88.63-10,7.2-11.14,14.91-8.36,22.12,2.49,6.45,9.88,9.48,17.64,10.78,22.23,3.74,49.77-1.18,70.65-8.72,20.45-7.39,32.37-20.45,43.31-37.76.23-.37.52-.72.89-1.02,1.96-1.62,3.59-.28,4.03,1.18,3.85,12.68-17.04,31.62-12.39,43.1,2.3,5.68,29.1,4.49,35.89,1.54,26.91-11.68,49.39-31.09,66.9-53.13,7.39-9.29,19.82-34.95,33.08-34.49,29.18,1.02,5.34,31.99-.02,44.53-4.94,11.58-21,28.53-21.04,39.77-.03,9.84,31.53,8.46,40.61,2.54,15.57-10.14,30.01-32.41,38.7-47.49,6.4-11.1,18.23-38.24,35.36-38.27,31.45-.06-23.4,68.97-25.51,81.33-.38,2.26-.59,4.58.35,6.31,1.38,2.57,17.15,3.34,20.87,2.79,12.87-1.88,20.07-10.05,27.36-20.3,14.78-20.78,28.08-41.76,45.88-60.48,2.7-2.84,5.57-5.66,9.23-7.26,3.65-1.6,8.28-1.73,11.45.63.56.42,1.08.93,1.31,1.56.4,1.09-.11,2.28-.62,3.33-5.17,10.65-11.25,20.8-17.61,30.84-4.3,6.8-11.5,14.59-13.96,22.25-1.14,3.54-2.19,7.23-1.65,10.89,2.88,19.54,28.21,20.97,42.33,13.55,13.57-7.13,21.78-19.62,33.85-28.28,1.68-1.21,3.63-.69,3.51.93-.41,5.52,1.95,13.3,2.71,14.93,7.1,15.11,27.45,19.04,47.73,16.26,10.52-1.44,29.65-5.07,40.21-9.86,11.1-5.03,26.54-17.22,34.45-24.58,1.09-1.01,2.6-.66,2.35.54,0,0,1.96,29.97,106.3,24.28,102.25-5.58,219.25.47,223.87.71.1,0,.19,0,.29,0h3.42c4.28,0,6.76,4.6,4.26,7.9l-48.4,64c-.18.23-.33.48-.46.73-5.88,11.56-5.4,30.03,11.64,33.11,3.8.69,7.73.36,11.44-.72,32.26-9.42,55.31-44.84,78.17-66.93,11.27-10.89,23.74-20.97,37.77-28.32,15.43-8.08,28.46-7.98,45.14-10.2,8.09-1.07,20.29-4.68,25.97-10.98,3.86-4.27-3.77-13.73-12.33-14.35l-33.4-2.51c-3.61-.27-5.54-4.24-3.47-7.14,4.25-5.98,15.8-16.96,19.42-20.36.77-.72,1.27-1.65,1.47-2.65,4.99-25.21-35.79-13.88-47.41-8.85-17.13,7.4-33.84,28.74-50.93,36.64-.61.28-1.28.44-1.96.47-6.39.33-39.96,1.39-36.75-12.28.23-1,.81-1.89,1.61-2.57,18.96-16.12,48.96-41.3,66.97-57.64,12.3-11.15,25.44-22.27,37.35-34.19.13-.13.26-.25.4-.36,17.35-13.94,30.29-24.34,37.74-30.33,3.32-2.67,4.52-6.96,3.43-11-1.56-5.72,2.45-16.17,35.08-31.04.34-.15.65-.34.95-.55,3.95-2.92,33.01-24.86,47.64-50.15,1.91-3.3-.94-7.25-4.76-6.6ZM670.61,682.06c-15.5,11.74-49.5,30.27-122.31,48.71-44.87,11.37-88.34,12.65-131.85,16.29-16.9,1.41-33.6,4.71-58.28,14.73-10.43,4.24-16.43-4.84-8.73-13.19l54.74-59.4c4.16-4.51,10.12-7.37,15.51-7.41,53.98-.46,203.1-8.71,249.37-11.34,6.69-.38,7.66,6.98,1.55,11.61ZM769.47,504.97c-.62,28.06-10.38,55.24-25.25,82.57-2.77,5.09-7.13,12.27-11.33,19.02-7.03,11.28-20.32,19.49-32.79,20.27-51.94,3.22-187.22,11.12-238.34,9.48-10.16-.33-13.12-10.39-5.68-19.34l18.32-22.06c9.35-11.25,19.68-21.43,27.99-33.35,10.45-14.97,33.55-52.58,21.43-63.99-13.88-13.06-36.66,14.43-44.86,27.13-17.38,26.94-53.3,79.05-67.96,100.25-3.87,5.6-10.63,9.51-16.88,9.78-12.17.52-31.47,1.22-38.21.82-43.64-2.6-122.25-6.93-115.54-59.55,9.38-73.53,140.77-145.69,209.69-170.6,50.03-18.08,100.99-26.12,147.87-25.23,45.98.87,89.61,10.42,122.26,32.02,31.03,20.53,50.17,52.52,49.28,92.8ZM891.89,625.63c-9.65,10.62-21.77,16.72-31.83,19.6-.78.22-8.67,1.81-9.62,2.1-9.31,2.86-12.69,1.5-9.61-11.22,4.26-17.58,26.48-38.63,39.17-47.68,15.31-10.93,25.88-8.3,27.75.77,1.9,9.25-7.56,27.31-15.86,36.44ZM1388.93,600.93c-1.25,4.06-3.17,8.67-5.6,13.56-3.37,6.79-7.92,13.86-14.58,18.63-13.1,9.38-45.23,18.09-42.5,1.26,2.53-15.53,26.26-34.45,40.24-42.65,22.48-13.18,26.98-5.65,22.43,9.19Z"></path>
  <path class="st0" d="M1056.24,275.03c0,46.81-36.08,84.91-81.02,86.09-.71.01-1.43.03-2.16.03-45.92,0-83.16-38.55-83.16-86.12s37.24-86.12,83.16-86.12c.73,0,1.44.01,2.16.03,44.94,1.18,81.02,39.28,81.02,86.09Z"></path>
  <path class="st1" d="M1341.38,91.44v366.76h-366.76v-59.45c65.27-.87,117.92-55.9,117.92-123.71s-52.65-122.82-117.92-123.68v-59.9h366.76Z"></path>
</svg>